<svg id="Capa_1" enable-background="new 0 0 510 510" height="512" viewBox="0 0 510 510" width="512" xmlns="http://www.w3.org/2000/svg" xmlns:xlink="http://www.w3.org/1999/xlink"><linearGradient id="lg1"><stop offset="0" stop-color="#017297"/><stop offset="1" stop-color="#024c67"/></linearGradient><linearGradient id="SVGID_1_" gradientUnits="userSpaceOnUse" x1="-20.282" x2="88.541" xlink:href="#lg1" y1="-20.291" y2="88.532"/><linearGradient id="SVGID_00000067933156666213886120000010100905328336234385_" gradientTransform="matrix(-1 0 0 -1 2998.67 -2321.348)" gradientUnits="userSpaceOnUse" x1="2468.388" x2="2577.211" xlink:href="#lg1" y1="-2851.639" y2="-2742.816"/><linearGradient id="SVGID_00000128486387451578127820000013297260700418169737_" gradientTransform="matrix(0 1 -1 0 -22 -2660)" gradientUnits="userSpaceOnUse" x1="2639.718" x2="2748.541" xlink:href="#lg1" y1="-552.291" y2="-443.468"/><linearGradient id="SVGID_00000054249868306476950890000004656757796947396242_" gradientTransform="matrix(0 -1 1 0 2299.348 338.67)" gradientUnits="userSpaceOnUse" x1="-191.612" x2="-82.789" xlink:href="#lg1" y1="-2319.639" y2="-2210.816"/><linearGradient id="lg2"><stop offset="0" stop-color="#ffdfcf"/><stop offset="1" stop-color="#ffa78f"/></linearGradient><linearGradient id="SVGID_00000119090958983934194320000000689049468712065155_" gradientUnits="userSpaceOnUse" x1="79.181" x2="121.765" xlink:href="#lg2" y1="256.071" y2="298.655"/><linearGradient id="SVGID_00000084505540740962905830000003935908112509840544_" gradientUnits="userSpaceOnUse" x1="376.95" x2="436.539" xlink:href="#lg2" y1="247.982" y2="307.571"/><linearGradient id="SVGID_00000114065232535149526850000005544886799296194741_" gradientUnits="userSpaceOnUse" x1="432.436" x2="398.383" y1="284.44" y2="278.015"><stop offset="0" stop-color="#f89580" stop-opacity="0"/><stop offset=".9972" stop-color="#c5715a"/></linearGradient><linearGradient id="SVGID_00000122709546260807621300000000929335406767938698_" gradientUnits="userSpaceOnUse" x1="152.186" x2="356.474" xlink:href="#lg2" y1="212.46" y2="349.797"/><linearGradient id="lg3"><stop offset="0" stop-color="#f89580" stop-opacity="0"/><stop offset=".2616" stop-color="#f1907b" stop-opacity=".262"/><stop offset=".6357" stop-color="#de826c" stop-opacity=".638"/><stop offset=".9972" stop-color="#c5715a"/></linearGradient><linearGradient id="SVGID_00000180338652313635782270000017610800632933946526_" gradientUnits="userSpaceOnUse" x1="255" x2="255" xlink:href="#lg3" y1="336.737" y2="389.961"/><linearGradient id="SVGID_00000039126607655240531640000005187565045235381948_" gradientUnits="userSpaceOnUse" x1="264.185" x2="295.59" xlink:href="#lg3" y1="343.097" y2="350.736"/><linearGradient id="SVGID_00000134932533223469994110000012944501613814515077_" gradientTransform="matrix(-1 0 0 1 -554 0)" gradientUnits="userSpaceOnUse" x1="-799.815" x2="-768.411" y1="343.097" y2="350.736"><stop offset="0" stop-color="#ffddcd" stop-opacity="0"/><stop offset=".9972" stop-color="#ffddcd"/></linearGradient><linearGradient id="lg4"><stop offset="0" stop-color="#5a5a5a"/><stop offset="1" stop-color="#444"/></linearGradient><linearGradient id="SVGID_00000026123329851527931410000015253957718076508032_" gradientUnits="userSpaceOnUse" x1="172.597" x2="203.497" xlink:href="#lg4" y1="295.488" y2="318.235"/><linearGradient id="SVGID_00000166637914110816242250000017056348874013036674_" gradientUnits="userSpaceOnUse" x1="306.865" x2="334.333" xlink:href="#lg4" y1="294.156" y2="314.757"/><linearGradient id="SVGID_00000036961504568089420810000001149507678681497510_" gradientUnits="userSpaceOnUse" x1="349.816" x2="417.916" xlink:href="#lg4" y1="144.713" y2="212.813"/><linearGradient id="SVGID_00000097500242643148585980000012576262658964057777_" gradientUnits="userSpaceOnUse" x1="158.412" x2="260.805" xlink:href="#lg4" y1="77.35" y2="179.743"/><linearGradient id="lg5"><stop offset="0" stop-color="#eaf9fa"/><stop offset="1" stop-color="#b3dafe"/></linearGradient><linearGradient id="SVGID_00000161614368962131895740000008660719656897171074_" gradientUnits="userSpaceOnUse" x1="301.775" x2="428.197" xlink:href="#lg5" y1="389.384" y2="514.164"/><linearGradient id="lg6"><stop offset="0" stop-color="#aeffd1"/><stop offset=".1201" stop-color="#a3f9cb"/><stop offset=".3288" stop-color="#87eab9"/><stop offset=".6012" stop-color="#59d19d"/><stop offset=".9235" stop-color="#19af77"/><stop offset="1" stop-color="#09a76d"/></linearGradient><linearGradient id="SVGID_00000040568704388456655980000001026227760643947671_" gradientUnits="userSpaceOnUse" x1="394.614" x2="461.614" xlink:href="#lg6" y1="412.264" y2="525.264"/><linearGradient id="SVGID_00000110435411297387638690000014862269541535122088_" gradientUnits="userSpaceOnUse" x1="425.413" x2="492.413" xlink:href="#lg6" y1="394.003" y2="507.003"/><linearGradient id="SVGID_00000135668362222189030870000009948757335642004118_" gradientUnits="userSpaceOnUse" x1="262.07" x2="262.07" y1="281.333" y2="206.592"><stop offset="0" stop-color="#0593fc" stop-opacity="0"/><stop offset=".6831" stop-color="#0389fc" stop-opacity=".683"/><stop offset="1" stop-color="#0182fc"/></linearGradient><linearGradient id="SVGID_00000120540118745879543100000013816297134500128445_" gradientUnits="userSpaceOnUse" x1="255" x2="255" y1="197" y2="222.318"><stop offset="0" stop-color="#62dbfb"/><stop offset=".1912" stop-color="#57d5fa"/><stop offset=".5232" stop-color="#3bc5f7"/><stop offset=".954" stop-color="#0dabf2"/><stop offset="1" stop-color="#08a9f1"/></linearGradient><linearGradient id="SVGID_00000070812154062863168860000012214015304098274187_" gradientUnits="userSpaceOnUse" x1="139.181" x2="168.336" xlink:href="#lg5" y1="357.486" y2="386.641"/><linearGradient id="SVGID_00000104679139311904848560000014794108910400401063_" gradientUnits="userSpaceOnUse" x1="17.518" x2="72.518" xlink:href="#lg6" y1="304.42" y2="431.42"/><linearGradient id="SVGID_00000170280053393991524680000002338331409443782803_" gradientUnits="userSpaceOnUse" x1="28.544" x2="83.544" xlink:href="#lg6" y1="299.645" y2="426.645"/><linearGradient id="SVGID_00000164493502838529047300000006955572982291930252_" gradientUnits="userSpaceOnUse" x1="-6.508" x2="48.492" xlink:href="#lg6" y1="314.825" y2="441.825"/><linearGradient id="SVGID_00000134971395284254600480000004966739372798237849_" gradientUnits="userSpaceOnUse" x1="396.434" x2="414.797" y1="413.896" y2="432.259"><stop offset="0" stop-color="#fe0364"/><stop offset=".2568" stop-color="#f3035f"/><stop offset=".7013" stop-color="#d70252"/><stop offset="1" stop-color="#c00148"/></linearGradient><linearGradient id="SVGID_00000011003502560193012400000006531058072241300116_" gradientUnits="userSpaceOnUse" x1="422.434" x2="440.797" y1="413.896" y2="432.259"><stop offset="0" stop-color="#fee45a"/><stop offset="1" stop-color="#fea613"/></linearGradient><linearGradient id="SVGID_00000161623165601912907480000000823531610635892098_" gradientUnits="userSpaceOnUse" x1="448.434" x2="466.797" xlink:href="#lg6" y1="413.896" y2="432.259"/><g><g><g><path d="m35.663 0c-19.696 0-35.663 15.967-35.663 35.663v43.272c0 7.576 6.141 13.717 13.717 13.717 7.576 0 13.717-6.141 13.717-13.717v-43.29c0-4.535 3.677-8.212 8.212-8.212h43.308c7.576 0 13.717-6.141 13.717-13.717-.001-7.575-6.142-13.716-13.718-13.716z" fill="url(#SVGID_1_)"/><path d="m474.337 510c19.696 0 35.663-15.967 35.663-35.663v-43.272c0-7.576-6.141-13.717-13.717-13.717-7.576 0-13.717 6.141-13.717 13.717v43.29c0 4.535-3.676 8.212-8.212 8.212h-43.308c-7.576 0-13.717 6.141-13.717 13.717 0 7.576 6.141 13.717 13.717 13.717h43.291z" fill="url(#SVGID_00000067933156666213886120000010100905328336234385_)"/></g><g><path d="m510 35.663c0-19.696-15.967-35.663-35.663-35.663h-43.272c-7.576 0-13.717 6.141-13.717 13.717 0 7.576 6.141 13.717 13.717 13.717h43.29c4.535 0 8.212 3.677 8.212 8.212v43.308c0 7.576 6.141 13.717 13.717 13.717 7.576 0 13.717-6.141 13.717-13.717v-43.291z" fill="url(#SVGID_00000128486387451578127820000013297260700418169737_)"/><path d="m0 474.337c0 19.696 15.967 35.663 35.663 35.663h43.272c7.576 0 13.717-6.141 13.717-13.717 0-7.576-6.141-13.717-13.717-13.717h-43.29c-4.535 0-8.212-3.676-8.212-8.212v-43.308c0-7.576-6.141-13.717-13.717-13.717-7.575.001-13.716 6.142-13.716 13.718z" fill="url(#SVGID_00000054249868306476950890000004656757796947396242_)"/></g></g><g><g><g><g><g><path d="m63.602 278.961c0-25.038 17.38-46.016 40.734-51.529 6.242-1.474 12.21 3.354 12.21 9.768v83.522c0 6.414-5.967 11.242-12.21 9.768-23.354-5.513-40.734-26.491-40.734-51.529z" fill="url(#SVGID_00000119090958983934194320000000689049468712065155_)"/><path d="m446.398 278.961c0-25.038-17.38-46.016-40.734-51.529-6.242-1.474-12.21 3.354-12.21 9.768v83.522c0 6.414 5.967 11.242 12.21 9.768 23.354-5.513 40.734-26.491 40.734-51.529z" fill="url(#SVGID_00000084505540740962905830000003935908112509840544_)"/><path d="m446.398 278.961c0-25.038-17.38-46.016-40.734-51.529-6.242-1.474-12.21 3.354-12.21 9.768v83.522c0 6.414 5.967 11.242 12.21 9.768 23.354-5.513 40.734-26.491 40.734-51.529z" fill="url(#SVGID_00000114065232535149526850000005544886799296194741_)"/></g><g><g><g><path d="m255 473.992c-84.58 0-153.146-68.565-153.146-153.145v-78.537c0-84.58 68.566-153.145 153.145-153.145 84.58 0 153.145 68.566 153.145 153.145v78.536c.001 84.581-68.564 153.146-153.144 153.146z" fill="url(#SVGID_00000122709546260807621300000000929335406767938698_)"/><g><path d="m263.46 381.598h-16.92c-14.102 0-24.778-12.743-22.308-26.627l7.95-44.69c1.012-5.692 5.961-9.838 11.742-9.838h22.153c5.781 0 10.73 4.146 11.742 9.838l7.95 44.69c2.469 13.884-8.207 26.627-22.309 26.627z" fill="url(#SVGID_00000180338652313635782270000017610800632933946526_)"/><path d="m263.46 381.598h-16.92c-14.102 0-24.778-12.743-22.308-26.627l7.95-44.69c1.012-5.692 5.961-9.838 11.742-9.838h22.153c5.781 0 10.73 4.146 11.742 9.838l7.95 44.69c2.469 13.884-8.207 26.627-22.309 26.627z" fill="url(#SVGID_00000039126607655240531640000005187565045235381948_)"/><path d="m246.54 381.598h16.921c14.102 0 24.778-12.743 22.308-26.627l-7.95-44.69c-1.012-5.692-5.961-9.838-11.742-9.838h-22.153c-5.781 0-10.73 4.146-11.742 9.838l-7.95 44.69c-2.47 13.884 8.206 26.627 22.308 26.627z" fill="url(#SVGID_00000134932533223469994110000012944501613814515077_)"/></g></g></g></g><g><path d="m187.112 334.136c-12.292 0-22.256-9.964-22.256-22.256v-11.413c0-12.292 9.964-22.256 22.256-22.256 12.292 0 22.256 9.964 22.256 22.256v11.413c0 12.292-9.964 22.256-22.256 22.256z" fill="url(#SVGID_00000026123329851527931410000015253957718076508032_)"/><path d="m322.888 334.136c-12.292 0-22.256-9.964-22.256-22.256v-11.413c0-12.292 9.964-22.256 22.256-22.256 12.292 0 22.256 9.964 22.256 22.256v11.413c0 12.292-9.964 22.256-22.256 22.256z" fill="url(#SVGID_00000166637914110816242250000017056348874013036674_)"/></g></g></g></g><g><path d="m463.501 196.303c0 30.692-8.565 50.768-20.342 63.866-22.215 24.707-62.655 15.921-74.417-15.153-13.831-36.54-46.506-62.211-84.6-62.211-1.05 0-2.1.017-3.15.067 5.949-49.543 44.361-87.772 90.855-87.772 50.626-.001 91.654 45.31 91.654 101.203z" fill="url(#SVGID_00000036961504568089420810000001149507678681497510_)"/><path d="m405.823 112.284c-1.481-20.573-12.593-39.384-29.726-50.869-20.733-13.899-56.212-25.407-116.852-25.407-38.714 0-67.17 4.691-88.082 11.7-14.15 4.743-28.428 9.115-42.955 12.529-46.914 11.023-81.708 51.415-81.708 99.566 0 56.637 48.136 102.551 107.515 102.551 43.675 0 119.102-78.356 186.304-78.356 8.345 0 15.007-7.281 22.634-10.668 16.64-7.39 45.434-25.42 42.87-61.046z" fill="url(#SVGID_00000097500242643148585980000012576262658964057777_)"/></g></g><g><path d="m387.89 452.32v2.18c0 3.54-2.87 6.41-6.41 6.41h-11.19c-21.27 0-40.65-13.35-48.23-33.23l-2.098-5.511c-1.869-4.909 1.757-10.169 7.01-10.169 3.112 0 5.901 1.922 7.009 4.83l2.1 5.51c5.37 14.1 19.12 23.57 34.21 23.57h11.19c3.539 0 6.409 2.87 6.409 6.41z" fill="url(#SVGID_00000161614368962131895740000008660719656897171074_)"/><g><path d="m403.66 446.172h29.953c3.649 0 6.607 2.958 6.607 6.607s-2.958 6.607-6.607 6.607h-29.953c-3.649 0-6.607-2.958-6.607-6.607-.001-3.649 2.957-6.607 6.607-6.607z" fill="url(#SVGID_00000040568704388456655980000001026227760643947671_)"/><path d="m456.519 446.172h7.488c3.649 0 6.607 2.958 6.607 6.607s-2.958 6.607-6.607 6.607h-7.488c-3.649 0-6.607-2.958-6.607-6.607-.001-3.649 2.958-6.607 6.607-6.607z" fill="url(#SVGID_00000110435411297387638690000014862269541535122088_)"/></g></g><path d="m462.681 212h-401.222c5.955 9.586 13.493 18.171 22.282 25.417-12.263 9.697-20.138 24.697-20.138 41.544 0 24.242 16.294 44.678 38.527 50.957 1.181 20.221 6.289 39.386 14.566 56.749h276.61c8.277-17.363 13.384-36.528 14.566-56.749 22.233-6.278 38.527-26.714 38.527-50.957 0-6.562-1.204-12.84-3.386-18.639.048-.053.099-.1.147-.153 9.636-10.718 17.119-26.113 19.521-48.169z" fill="url(#SVGID_00000135668362222189030870000009948757335642004118_)"/><path d="m11.454 222.056h487.091c6.326 0 11.454-5.128 11.454-11.454 0-6.326-5.128-11.454-11.454-11.454h-487.091c-6.326-.001-11.454 5.127-11.454 11.453 0 6.326 5.128 11.455 11.454 11.455z" fill="url(#SVGID_00000120540118745879543100000013816297134500128445_)"/><g><path d="m173.144 320.169h2.166c3.544 0 6.417 2.873 6.417 6.417v11.184c0 21.273-13.358 40.656-33.239 48.23l-37.315 14.217c-3.312 1.262-7.019-.4-8.281-3.712l-.771-2.025c-1.262-3.312.4-7.019 3.712-8.281l37.315-14.217c14.103-5.373 23.579-19.122 23.579-34.213v-11.184c.001-3.543 2.874-6.416 6.417-6.416z" fill="url(#SVGID_00000070812154062863168860000012214015304098274187_)"/><g><path d="m92.455 370.714c0-3.649-2.958-6.607-6.607-6.607h-79.241c-3.649 0-6.607 2.958-6.607 6.607s2.958 6.607 6.607 6.607h79.24c3.65 0 6.608-2.958 6.608-6.607z" fill="url(#SVGID_00000104679139311904848560000014794108910400401063_)"/><path d="m85.847 390.773h-29.953c-3.649 0-6.607 2.958-6.607 6.607s2.958 6.607 6.607 6.607h29.953c3.649 0 6.607-2.958 6.607-6.607.001-3.649-2.957-6.607-6.607-6.607z" fill="url(#SVGID_00000170280053393991524680000002338331409443782803_)"/><path d="m32.988 390.773h-7.488c-3.649 0-6.607 2.958-6.607 6.607s2.958 6.607 6.607 6.607h7.488c3.649 0 6.607-2.958 6.607-6.607.001-3.649-2.958-6.607-6.607-6.607z" fill="url(#SVGID_00000164493502838529047300000006955572982291930252_)"/></g></g><g><circle cx="406.538" cy="424" fill="url(#SVGID_00000134971395284254600480000004966739372798237849_)" r="9.486"/><circle cx="432.538" cy="424" fill="url(#SVGID_00000011003502560193012400000006531058072241300116_)" r="9.486"/><circle cx="458.538" cy="424" fill="url(#SVGID_00000161623165601912907480000000823531610635892098_)" r="9.486"/></g></g></svg>